<svg xmlns="http://www.w3.org/2000/svg" height="24" viewBox="0 -960 960 960" width="24"><path d="M581.538-200v-40h77.693q25.461 0 43.115-17.269Q720-274.538 720-298.461v-84.616q0-33.384 20.462-59 20.461-25.615 52.615-34.769v-6.308q-32.154-9.154-52.615-34.769-20.462-25.616-20.462-59v-84.616q0-23.923-17.654-41.192Q684.692-720 659.231-720h-77.693v-40h77.693q42.308 0 71.538 28.846Q760-702.308 760-661.539v84.616q0 25.461 18.423 42.73 18.423 17.27 44.654 17.27H840v73.846h-16.923q-26.231 0-44.654 17.27Q760-408.538 760-383.077v84.616q0 40.769-29.231 69.615Q701.539-200 659.231-200h-77.693Zm-280.769 0q-41.538 0-71.154-28.846Q200-257.692 200-298.461v-84.616q0-25.461-18.423-42.73-18.423-17.27-44.654-17.27H120v-73.846h16.923q26.231 0 44.654-17.27Q200-551.462 200-576.923v-84.616q0-40.769 29.615-69.615Q259.231-760 300.769-760h78.462v40h-78.462q-24.692 0-42.731 17.269Q240-685.462 240-661.539v84.616q0 33.384-20.077 59-20.077 25.615-53 34.769v6.308q32.923 9.154 53 34.769 20.077 25.616 20.077 59v84.616q0 23.923 18.038 41.192Q276.077-240 300.769-240h78.462v40h-78.462Z"/></svg>