<svg xmlns="http://www.w3.org/2000/svg" height="24" viewBox="0 -960 960 960" width="24"><path d="M560-140q-8.539 0-14.269-5.731Q540-151.461 540-160t5.731-14.269Q551.461-180 560-180q57 0 98.5-23.115Q700-226.231 700-260q0-25.538-24.539-46-24.538-20.461-69.076-32.769l31.308-30.539q49.692 16.693 76 45Q740-296 740-260q0 56.769-56.846 88.385Q626.308-140 560-140ZM227.615-429.846Q184-446.077 162-469.346 140-492.615 140-520q0-33.539 27.923-58.577 27.923-25.038 102.538-57.731 65.308-29 87.424-45.884Q380-699.077 380-720q0-24.461-26.423-42.231Q327.154-780 280-780q-28.077 0-50.461 8.308-22.385 8.307-38.693 24.615-5.615 5.616-13.154 6.462-7.538.846-14.384-4-6.847-5.385-7.693-13.308-.846-7.923 4.77-14.769 15.153-19.923 48.73-33.616Q242.692-820 280-820q62 0 101 28.269T420-720q0 33.615-27.461 60.385-27.462 26.769-106.231 60.154-61.846 26.538-84.077 43.923Q180-538.154 180-520q0 16.692 19.577 32.115 19.577 15.423 58.808 28.039l-30.77 30Zm501.001-165.692L625.538-698.615l35.077-35.077q15.539-15.539 35.193-15.924 19.654-.384 34.961 15.154l33.693 33.693q15.538 15.308 15.154 34.961-.385 19.654-15.923 35.193l-35.077 35.077ZM233.077-203.077h46L604-528l-46-46-324.923 324.923v46Zm-40 40v-103.077L558-631.077 661.077-528 296.154-163.077H193.077ZM558-574l46 46-46-46Z"/></svg>